<?xml version="1.0" encoding="UTF-8" standalone="no"?>
<!DOCTYPE svg PUBLIC "-//W3C//DTD SVG 1.1//EN" "http://www.w3.org/Graphics/SVG/1.1/DTD/svg11.dtd">
<svg version="1.1" id="Layer_1" xmlns="http://www.w3.org/2000/svg" xmlns:xlink="http://www.w3.org/1999/xlink" x="0px" y="0px"
	 width="100%" viewBox="-128 -128 768 768" enable-background="new -128 -128 768 768" xml:space="preserve">
<path fill="#004D40" opacity="1.000000" stroke="none" 
	d="
M1.000000,197.000000 
	C1.000000,131.333328 1.000000,66.166664 1.000000,1.000000 
	C171.666672,1.000000 342.333344,1.000000 513.000000,1.000000 
	C513.000000,171.666672 513.000000,342.333344 513.000000,513.000000 
	C342.333344,513.000000 171.666672,513.000000 1.000000,513.000000 
	C1.000000,407.833344 1.000000,302.666656 1.000000,197.000000 
M364.419769,88.670349 
	C364.144653,89.275124 363.876129,89.882980 363.593536,90.484238 
	C356.564453,105.439590 352.659088,121.112610 352.887085,137.703171 
	C352.953003,142.502380 356.082306,145.792633 360.431183,145.975433 
	C364.487091,146.145889 367.997192,143.223541 368.676910,138.830399 
	C369.005280,136.708115 368.842285,134.513519 368.967560,132.355484 
	C369.604584,121.380379 372.035675,110.861206 376.717194,100.543648 
	C377.951202,101.310120 378.807953,101.777748 379.596008,102.341415 
	C390.865509,110.402283 403.228668,113.697708 416.772186,109.900581 
	C432.380890,105.524467 442.995636,94.483818 451.526581,81.505440 
	C465.770660,59.835575 467.367523,35.854645 462.484741,11.150545 
	C461.964417,8.517995 458.740143,5.087770 456.173065,4.456676 
	C449.964325,2.930313 443.402588,2.840074 436.063202,2.036662 
	C409.930908,1.322336 386.983734,8.818831 368.348938,27.883707 
	C350.358093,46.289715 348.938782,67.521118 364.419769,88.670349 
M500.776947,333.812256 
	C515.328552,314.052887 513.938904,293.411743 496.922363,275.630707 
	C476.964417,254.776093 452.127808,247.479431 423.167603,249.112015 
	C418.565491,249.752548 413.957825,250.355988 409.362946,251.044739 
	C405.322876,251.650314 402.566833,253.844650 402.026154,258.010345 
	C401.129395,264.920135 400.001129,271.845703 399.784760,278.789978 
	C398.925659,306.365082 408.491150,329.541901 429.873047,347.391052 
	C439.884705,355.748596 451.488770,360.435364 464.473938,357.736847 
	C472.546417,356.059265 480.121399,351.987549 488.341248,348.828339 
	C493.105286,359.000122 495.235931,370.986298 495.784790,383.343262 
	C496.066101,389.677032 499.096313,393.186035 504.080444,392.966156 
	C509.031158,392.747772 511.945679,388.935669 511.757019,382.680908 
	C511.294861,367.362976 507.932465,352.713196 501.544708,338.760162 
	C500.880829,337.310089 500.622375,335.674377 500.776947,333.812256 
M53.923386,145.979858 
	C59.904385,145.644699 65.943413,145.725708 71.856178,144.901215 
	C95.436813,141.613022 114.742828,130.696899 128.413177,111.047859 
	C139.598785,94.970215 137.978882,75.211166 125.086678,60.132809 
	C126.177780,57.376186 127.217377,54.597855 128.368729,51.866627 
	C133.869446,38.817883 136.681870,25.165205 136.583252,11.063131 
	C136.564072,8.319899 134.301453,4.773209 131.985611,3.138210 
	C130.295471,1.944958 126.077827,2.350932 124.335197,3.737964 
	C122.366814,5.304683 121.104950,8.714472 120.928688,11.413695 
	C120.120468,23.790451 118.112289,35.814423 112.777649,47.421566 
	C111.726707,46.770168 110.891914,46.296825 110.102562,45.757038 
	C90.751396,32.524078 71.194885,33.361614 53.499432,48.796158 
	C25.962568,72.814690 20.636417,103.665276 27.294304,137.781860 
	C27.745392,140.093338 30.905710,143.080933 33.267635,143.583191 
	C39.713776,144.953918 46.407146,145.161972 53.923386,145.979858 
M194.500000,431.968597 
	C226.653244,431.969269 258.807648,432.118774 290.958923,431.869904 
	C299.402557,431.804565 306.503387,434.614380 313.276672,439.122803 
	C325.014771,446.935974 325.085175,468.485809 314.576141,476.907166 
	C306.621460,483.281525 293.537231,480.691528 288.717194,471.638580 
	C286.112640,466.746704 280.287170,466.305206 276.250092,470.095154 
	C272.511658,473.604706 275.193268,481.358917 278.544952,484.965729 
	C287.888000,495.019836 299.839233,497.162598 312.430420,494.155304 
	C334.579498,488.865143 342.272858,461.923706 334.564056,443.513763 
	C327.120819,425.737976 312.196442,417.186951 293.467224,417.120911 
	C201.506302,416.796631 109.543594,416.969025 17.581524,416.966156 
	C14.915958,416.966064 12.247143,417.053101 9.585565,416.950714 
	C5.241606,416.783630 2.935903,419.511658 2.294016,423.094482 
	C1.599817,426.969208 3.963323,429.859375 7.725480,430.900635 
	C10.401568,431.641327 13.282978,431.924042 16.073210,431.926666 
	C75.215431,431.982025 134.357727,431.968536 194.500000,431.968597 
M312.568695,254.718323 
	C312.742096,251.068680 312.906250,247.418579 313.090515,243.769485 
	C313.981689,226.121841 298.251190,204.849075 273.611481,208.929153 
	C262.125031,210.831177 252.919830,217.693100 250.827301,226.981522 
	C249.861740,231.267395 251.837387,235.185806 255.945877,236.322388 
	C259.799500,237.388489 262.828186,235.694016 264.676239,232.309692 
	C269.347168,223.755905 280.469849,221.230957 288.939270,226.119537 
	C299.200104,232.042084 300.368774,250.939377 295.098755,258.415009 
	C288.387054,267.935669 278.854126,272.003296 267.650726,272.032715 
	C215.162033,272.170532 162.672791,272.097168 110.183754,272.106873 
	C102.830887,272.108215 98.266228,275.041870 98.107628,279.813171 
	C97.943611,284.747833 102.655785,287.877045 110.318115,287.877808 
	C160.807587,287.882843 211.297256,287.945984 261.786255,287.792725 
	C267.715179,287.774719 273.839050,287.287476 279.529480,285.748901 
	C295.545380,281.418610 307.719452,272.480530 312.568695,254.718323 
M74.500000,448.118805 
	C54.343449,448.118805 34.186825,448.094330 14.030457,448.154877 
	C11.900098,448.161285 9.251541,447.978455 7.762032,449.101654 
	C5.460497,450.837250 2.520308,453.618073 2.509831,455.967438 
	C2.499354,458.316986 5.358978,461.268005 7.705627,462.850128 
	C9.529743,464.079956 12.498943,463.858307 14.959595,463.860657 
	C66.100609,463.909210 117.246117,464.278931 168.380203,463.682373 
	C185.340195,463.484497 201.750198,476.511414 202.083084,495.136505 
	C202.170288,500.015289 206.014709,503.774658 210.162537,503.620300 
	C214.366135,503.463837 217.024734,500.143066 217.030869,494.855743 
	C217.049789,478.525726 209.232422,466.318329 196.586838,456.860413 
	C187.395096,449.985779 176.567261,448.206512 165.454773,448.160919 
	C135.470291,448.037872 105.484978,448.118988 74.500000,448.118805 
M120.500000,383.968628 
	C159.627289,383.652710 198.757004,383.509369 237.880920,382.954803 
	C260.549164,382.633453 281.306152,360.474823 281.013855,337.625122 
	C280.935486,331.499786 278.994995,329.102905 273.881012,328.973999 
	C269.018738,328.851440 266.250122,332.007050 265.993774,337.768555 
	C265.534882,348.081146 260.794952,355.975067 252.673615,362.258636 
	C244.707092,368.422394 235.355194,368.828491 226.131683,368.866638 
	C175.634216,369.075500 125.135323,369.010803 74.637253,368.893921 
	C69.968643,368.883087 67.369034,370.951843 66.220604,375.038330 
	C65.298866,378.318207 68.312111,382.080811 72.610886,383.272369 
	C74.339241,383.751465 76.199867,383.932770 78.001472,383.939606 
	C91.834152,383.992218 105.667122,383.968536 120.500000,383.968628 
M58.497360,480.118805 
	C43.361084,480.118866 28.224731,480.091339 13.088564,480.132050 
	C6.639562,480.149414 2.200999,483.353516 2.107157,487.885437 
	C2.013279,492.419067 6.507020,495.769287 12.858277,495.894135 
	C13.689623,495.910492 14.521559,495.897064 15.353222,495.897064 
	C33.483475,495.897095 51.613728,495.895966 69.743980,495.897614 
	C79.532616,495.898499 79.532631,495.900665 82.289261,505.315948 
	C83.452782,509.289948 87.244331,512.116272 90.820221,511.451691 
	C95.041893,510.667084 96.979439,507.919800 97.049202,503.688110 
	C97.202690,494.378265 92.466980,487.897949 84.833443,483.439117 
	C76.942772,478.830170 68.061996,480.354675 58.497360,480.118805 
M158.216873,339.508942 
	C159.146194,336.358124 160.608200,333.254028 160.889511,330.046387 
	C161.410690,324.103210 159.362381,321.499268 154.817230,320.994659 
	C149.778854,320.435333 147.140350,322.802917 145.985703,328.820953 
	C145.147446,333.190002 143.002075,336.038422 138.037384,336.114410 
	C133.906982,336.177673 129.784439,336.901337 125.656097,336.924957 
	C108.496956,337.023224 91.336899,336.949860 74.177246,336.979889 
	C69.892143,336.987366 66.153885,339.817993 66.173996,343.471405 
	C66.196419,347.543304 68.376007,350.323425 72.603127,351.094940 
	C74.389442,351.420990 76.187340,351.924469 77.981339,351.930359 
	C96.640236,351.991669 115.299522,352.008362 133.958450,351.951447 
	C143.812103,351.921417 152.190308,348.725708 158.216873,339.508942 
M48.500000,287.898132 
	C56.480827,287.894440 64.463821,287.997986 72.441475,287.837006 
	C75.878082,287.767639 79.563385,286.783813 80.285233,283.001617 
	C80.782440,280.396484 80.398666,276.644470 78.789970,274.885040 
	C77.104439,273.041565 73.500122,272.296021 70.708542,272.233826 
	C58.577015,271.963593 46.436047,272.117584 34.298508,272.117523 
	C27.315266,272.117462 20.331881,272.089569 13.348826,272.125732 
	C6.582366,272.160797 2.006311,275.445770 2.106174,280.117035 
	C2.205610,284.768311 6.740600,287.843994 13.581410,287.897064 
	C14.412699,287.903534 15.244081,287.898163 16.075418,287.898163 
	C26.550280,287.898102 37.025139,287.898041 48.500000,287.898132 
M123.412910,228.856537 
	C126.165382,231.899612 129.696136,233.387238 133.132751,230.953201 
	C135.275833,229.435303 137.605743,226.223892 137.448578,223.937714 
	C137.273376,221.389267 134.857925,217.981339 132.515503,216.897964 
	C130.429825,215.933334 126.574158,216.860382 124.461197,218.332596 
	C121.084915,220.685028 121.076096,224.526520 123.412910,228.856537 
M451.503021,200.010040 
	C454.791534,202.587067 458.564667,203.128357 461.433716,200.157120 
	C463.235260,198.291367 464.829498,194.661316 464.223938,192.450958 
	C463.543335,189.966553 460.557159,187.044525 458.061676,186.444794 
	C455.826538,185.907654 452.194794,187.612625 450.432526,189.499146 
	C447.667786,192.458801 448.256927,196.249084 451.503021,200.010040 
M253.522324,122.735573 
	C247.840836,126.711624 247.216049,133.237793 252.276291,136.578796 
	C255.576233,138.757553 258.955048,138.581223 261.921295,135.964890 
	C264.662079,133.547455 265.656891,130.441208 264.054169,126.973534 
	C262.106201,122.758949 258.740082,121.269455 253.522324,122.735573 
M164.119751,67.478455 
	C160.563995,70.461006 159.754593,74.089272 161.991013,78.130882 
	C164.057419,81.865257 168.628494,83.035446 172.377884,81.059631 
	C176.168182,79.062256 177.725098,74.745499 176.048523,70.882294 
	C174.184067,66.586227 170.167511,65.224152 164.119751,67.478455 
M347.867798,399.738556 
	C353.258606,396.854919 355.131439,392.878937 352.921906,388.580414 
	C351.026581,384.893188 347.827026,383.205444 343.809326,384.285400 
	C339.607880,385.414764 337.525726,388.458801 337.917572,392.907257 
	C338.312073,397.385437 341.403992,399.699615 347.867798,399.738556 
M458.866211,511.735138 
	C464.255737,508.855530 466.039551,504.921326 463.932739,500.561096 
	C462.198151,496.971252 457.953186,495.037598 454.307831,496.394379 
	C450.430267,497.837585 448.516113,500.709381 448.908356,504.915924 
	C449.325592,509.390717 452.409424,511.707733 458.866211,511.735138 
z"/>
<path fill="#CFEAF8" opacity="1.000000" stroke="none" 
	d="
M194.000000,431.968567 
	C134.357727,431.968536 75.215431,431.982025 16.073210,431.926666 
	C13.282978,431.924042 10.401568,431.641327 7.725480,430.900635 
	C3.963323,429.859375 1.599817,426.969208 2.294016,423.094482 
	C2.935903,419.511658 5.241606,416.783630 9.585565,416.950714 
	C12.247143,417.053101 14.915958,416.966064 17.581524,416.966156 
	C109.543594,416.969025 201.506302,416.796631 293.467224,417.120911 
	C312.196442,417.186951 327.120819,425.737976 334.564056,443.513763 
	C342.272858,461.923706 334.579498,488.865143 312.430420,494.155304 
	C299.839233,497.162598 287.888000,495.019836 278.544952,484.965729 
	C275.193268,481.358917 272.511658,473.604706 276.250092,470.095154 
	C280.287170,466.305206 286.112640,466.746704 288.717194,471.638580 
	C293.537231,480.691528 306.621460,483.281525 314.576141,476.907166 
	C325.085175,468.485809 325.014771,446.935974 313.276672,439.122803 
	C306.503387,434.614380 299.402557,431.804565 290.958923,431.869904 
	C258.807648,432.118774 226.653244,431.969269 194.000000,431.968567 
z"/>
<path fill="#58A102" opacity="1.000000" stroke="none" 
	d="
M53.002579,145.830597 
	C46.407146,145.161972 39.713776,144.953918 33.267635,143.583191 
	C30.905710,143.080933 27.745392,140.093338 27.294304,137.781860 
	C20.636417,103.665276 25.962568,72.814690 53.499432,48.796158 
	C71.194885,33.361614 90.751396,32.524078 110.102562,45.757038 
	C110.891914,46.296825 111.726707,46.770168 112.777649,47.421566 
	C118.112289,35.814423 120.120468,23.790451 120.928688,11.413695 
	C121.104950,8.714472 122.366814,5.304683 124.335197,3.737964 
	C126.077827,2.350932 130.295471,1.944958 131.985611,3.138210 
	C134.301453,4.773209 136.564072,8.319899 136.583252,11.063131 
	C136.681870,25.165205 133.869446,38.817883 128.368729,51.866627 
	C127.217377,54.597855 126.177780,57.376186 124.815483,60.659843 
	C123.868301,62.115776 123.093826,62.988861 122.531006,63.981903 
	C113.355118,80.172066 100.899475,93.236603 85.209618,103.225914 
	C80.672859,106.114334 75.907211,105.424744 73.327118,101.538567 
	C70.782059,97.705170 72.206299,93.344231 76.368881,90.008850 
	C83.216980,84.521629 90.168594,79.073288 96.381294,72.907936 
	C103.039955,66.300026 108.053406,58.355991 111.638023,49.455837 
	C103.606873,48.470726 92.240395,52.042259 84.455215,58.109127 
	C63.184662,74.684952 52.531116,96.631065 52.069721,123.476730 
	C51.941780,130.920486 52.668159,138.378906 53.002579,145.830597 
z"/>
<path fill="#58A101" opacity="1.000000" stroke="none" 
	d="
M500.175812,334.124817 
	C500.622375,335.674377 500.880829,337.310089 501.544708,338.760162 
	C507.932465,352.713196 511.294861,367.362976 511.757019,382.680908 
	C511.945679,388.935669 509.031158,392.747772 504.080444,392.966156 
	C499.096313,393.186035 496.066101,389.677032 495.784790,383.343262 
	C495.235931,370.986298 493.105286,359.000122 488.341248,348.828339 
	C480.121399,351.987549 472.546417,356.059265 464.473938,357.736847 
	C451.488770,360.435364 439.884705,355.748596 429.873047,347.391052 
	C408.491150,329.541901 398.925659,306.365082 399.784760,278.789978 
	C400.001129,271.845703 401.129395,264.920135 402.026154,258.010345 
	C402.566833,253.844650 405.322876,251.650314 409.362946,251.044739 
	C413.957825,250.355988 418.565491,249.752548 423.584167,249.639282 
	C424.318512,259.788452 423.993500,269.483612 425.079834,279.017914 
	C427.855957,303.383514 440.910950,321.634827 460.837128,335.092651 
	C467.516205,339.603577 475.166046,342.278595 484.237762,340.408997 
	C482.860260,337.945587 481.896362,336.039642 480.769257,334.235657 
	C473.149963,322.041016 462.680969,312.718018 451.052551,304.492126 
	C446.637329,301.368866 445.859131,297.005554 448.412048,293.324188 
	C451.061829,289.503174 455.767639,288.896606 460.340424,291.883606 
	C471.681732,299.291931 481.886261,307.938232 489.720490,319.131683 
	C493.214142,324.123413 496.691193,329.126740 500.175812,334.124817 
z"/>
<path fill="#58A102" opacity="1.000000" stroke="none" 
	d="
M436.983093,2.170933 
	C443.402588,2.840074 449.964325,2.930313 456.173065,4.456676 
	C458.740143,5.087770 461.964417,8.517995 462.484741,11.150545 
	C467.367523,35.854645 465.770660,59.835575 451.526581,81.505440 
	C442.995636,94.483818 432.380890,105.524467 416.772186,109.900581 
	C403.228668,113.697708 390.865509,110.402283 379.596008,102.341415 
	C378.807953,101.777748 377.951202,101.310120 376.717194,100.543648 
	C372.035675,110.861206 369.604584,121.380379 368.967560,132.355484 
	C368.842285,134.513519 369.005280,136.708115 368.676910,138.830399 
	C367.997192,143.223541 364.487091,146.145889 360.431183,145.975433 
	C356.082306,145.792633 352.953003,142.502380 352.887085,137.703171 
	C352.659088,121.112610 356.564453,105.439590 363.593536,90.484238 
	C363.876129,89.882980 364.144653,89.275124 364.729126,88.072670 
	C374.289185,70.145340 386.999268,55.971066 403.510834,45.254547 
	C408.619324,41.938992 413.325073,42.469498 416.139618,46.732979 
	C418.582764,50.433949 417.000488,55.226299 412.263123,58.435741 
	C400.309143,66.534248 390.243500,76.476982 382.740601,88.876427 
	C380.933411,91.863007 379.421875,95.028526 377.592468,98.452187 
	C385.901581,100.146400 392.736633,98.032288 398.625031,94.453690 
	C424.357208,78.815277 436.974762,55.341183 437.911469,25.516630 
	C438.155334,17.752110 437.321808,9.953751 436.983093,2.170933 
z"/>
<path fill="#6BC801" opacity="1.000000" stroke="none" 
	d="
M436.523132,2.103798 
	C437.321808,9.953751 438.155334,17.752110 437.911469,25.516630 
	C436.974762,55.341183 424.357208,78.815277 398.625031,94.453690 
	C392.736633,98.032288 385.901581,100.146400 377.592468,98.452187 
	C379.421875,95.028526 380.933411,91.863007 382.740601,88.876427 
	C390.243500,76.476982 400.309143,66.534248 412.263123,58.435741 
	C417.000488,55.226299 418.582764,50.433949 416.139618,46.732979 
	C413.325073,42.469498 408.619324,41.938992 403.510834,45.254547 
	C386.999268,55.971066 374.289185,70.145340 364.816528,87.691612 
	C348.938782,67.521118 350.358093,46.289715 368.348938,27.883707 
	C386.983734,8.818831 409.930908,1.322336 436.523132,2.103798 
z"/>
<path fill="#6CC801" opacity="1.000000" stroke="none" 
	d="
M500.476379,333.968536 
	C496.691193,329.126740 493.214142,324.123413 489.720490,319.131683 
	C481.886261,307.938232 471.681732,299.291931 460.340424,291.883606 
	C455.767639,288.896606 451.061829,289.503174 448.412048,293.324188 
	C445.859131,297.005554 446.637329,301.368866 451.052551,304.492126 
	C462.680969,312.718018 473.149963,322.041016 480.769257,334.235657 
	C481.896362,336.039642 482.860260,337.945587 484.237762,340.408997 
	C475.166046,342.278595 467.516205,339.603577 460.837128,335.092651 
	C440.910950,321.634827 427.855957,303.383514 425.079834,279.017914 
	C423.993500,269.483612 424.318512,259.788452 423.998596,249.715286 
	C452.127808,247.479431 476.964417,254.776093 496.922363,275.630707 
	C513.938904,293.411743 515.328552,314.052887 500.476379,333.968536 
z"/>
<path fill="#6BC801" opacity="1.000000" stroke="none" 
	d="
M53.462982,145.905243 
	C52.668159,138.378906 51.941780,130.920486 52.069721,123.476730 
	C52.531116,96.631065 63.184662,74.684952 84.455215,58.109127 
	C92.240395,52.042259 103.606873,48.470726 111.638023,49.455837 
	C108.053406,58.355991 103.039955,66.300026 96.381294,72.907936 
	C90.168594,79.073288 83.216980,84.521629 76.368881,90.008850 
	C72.206299,93.344231 70.782059,97.705170 73.327118,101.538567 
	C75.907211,105.424744 80.672859,106.114334 85.209618,103.225914 
	C100.899475,93.236603 113.355118,80.172066 122.531006,63.981903 
	C123.093826,62.988861 123.868301,62.115776 124.862518,61.027504 
	C137.978882,75.211166 139.598785,94.970215 128.413177,111.047859 
	C114.742828,130.696899 95.436813,141.613022 71.856178,144.901215 
	C65.943413,145.725708 59.904385,145.644699 53.462982,145.905243 
z"/>
<path fill="#A3D8F3" opacity="1.000000" stroke="none" 
	d="
M312.423218,255.120926 
	C307.719452,272.480530 295.545380,281.418610 279.529480,285.748901 
	C273.839050,287.287476 267.715179,287.774719 261.786255,287.792725 
	C211.297256,287.945984 160.807587,287.882843 110.318115,287.877808 
	C102.655785,287.877045 97.943611,284.747833 98.107628,279.813171 
	C98.266228,275.041870 102.830887,272.108215 110.183754,272.106873 
	C162.672791,272.097168 215.162033,272.170532 267.650726,272.032715 
	C278.854126,272.003296 288.387054,267.935669 295.098755,258.415009 
	C300.368774,250.939377 299.200104,232.042084 288.939270,226.119537 
	C280.469849,221.230957 269.347168,223.755905 264.676239,232.309692 
	C262.828186,235.694016 259.799500,237.388489 255.945877,236.322388 
	C251.837387,235.185806 249.861740,231.267395 250.827301,226.981522 
	C252.919830,217.693100 262.125031,210.831177 273.611481,208.929153 
	C298.251190,204.849075 313.981689,226.121841 313.090515,243.769485 
	C312.906250,247.418579 312.742096,251.068680 312.423218,255.120926 
z"/>
<path fill="#A4D8F3" opacity="1.000000" stroke="none" 
	d="
M75.000000,448.118958 
	C105.484978,448.118988 135.470291,448.037872 165.454773,448.160919 
	C176.567261,448.206512 187.395096,449.985779 196.586838,456.860413 
	C209.232422,466.318329 217.049789,478.525726 217.030869,494.855743 
	C217.024734,500.143066 214.366135,503.463837 210.162537,503.620300 
	C206.014709,503.774658 202.170288,500.015289 202.083084,495.136505 
	C201.750198,476.511414 185.340195,463.484497 168.380203,463.682373 
	C117.246117,464.278931 66.100609,463.909210 14.959595,463.860657 
	C12.498943,463.858307 9.529743,464.079956 7.705627,462.850128 
	C5.358978,461.268005 2.499354,458.316986 2.509831,455.967438 
	C2.520308,453.618073 5.460497,450.837250 7.762032,449.101654 
	C9.251541,447.978455 11.900098,448.161285 14.030457,448.154877 
	C34.186825,448.094330 54.343449,448.118805 75.000000,448.118958 
z"/>
<path fill="#CFEAF8" opacity="1.000000" stroke="none" 
	d="
M120.000000,383.968567 
	C105.667122,383.968536 91.834152,383.992218 78.001472,383.939606 
	C76.199867,383.932770 74.339241,383.751465 72.610886,383.272369 
	C68.312111,382.080811 65.298866,378.318207 66.220604,375.038330 
	C67.369034,370.951843 69.968643,368.883087 74.637253,368.893921 
	C125.135323,369.010803 175.634216,369.075500 226.131683,368.866638 
	C235.355194,368.828491 244.707092,368.422394 252.673615,362.258636 
	C260.794952,355.975067 265.534882,348.081146 265.993774,337.768555 
	C266.250122,332.007050 269.018738,328.851440 273.881012,328.973999 
	C278.994995,329.102905 280.935486,331.499786 281.013855,337.625122 
	C281.306152,360.474823 260.549164,382.633453 237.880920,382.954803 
	C198.757004,383.509369 159.627289,383.652710 120.000000,383.968567 
z"/>
<path fill="#A4D8F3" opacity="1.000000" stroke="none" 
	d="
M58.996460,480.118958 
	C68.061996,480.354675 76.942772,478.830170 84.833443,483.439117 
	C92.466980,487.897949 97.202690,494.378265 97.049202,503.688110 
	C96.979439,507.919800 95.041893,510.667084 90.820221,511.451691 
	C87.244331,512.116272 83.452782,509.289948 82.289261,505.315948 
	C79.532631,495.900665 79.532616,495.898499 69.743980,495.897614 
	C51.613728,495.895966 33.483475,495.897095 15.353222,495.897064 
	C14.521559,495.897064 13.689623,495.910492 12.858277,495.894135 
	C6.507020,495.769287 2.013279,492.419067 2.107157,487.885437 
	C2.200999,483.353516 6.639562,480.149414 13.088564,480.132050 
	C28.224731,480.091339 43.361084,480.118866 58.996460,480.118958 
z"/>
<path fill="#CFEAF8" opacity="1.000000" stroke="none" 
	d="
M158.057892,339.845917 
	C152.190308,348.725708 143.812103,351.921417 133.958450,351.951447 
	C115.299522,352.008362 96.640236,351.991669 77.981339,351.930359 
	C76.187340,351.924469 74.389442,351.420990 72.603127,351.094940 
	C68.376007,350.323425 66.196419,347.543304 66.173996,343.471405 
	C66.153885,339.817993 69.892143,336.987366 74.177246,336.979889 
	C91.336899,336.949860 108.496956,337.023224 125.656097,336.924957 
	C129.784439,336.901337 133.906982,336.177673 138.037384,336.114410 
	C143.002075,336.038422 145.147446,333.190002 145.985703,328.820953 
	C147.140350,322.802917 149.778854,320.435333 154.817230,320.994659 
	C159.362381,321.499268 161.410690,324.103210 160.889511,330.046387 
	C160.608200,333.254028 159.146194,336.358124 158.057892,339.845917 
z"/>
<path fill="#A4D8F3" opacity="1.000000" stroke="none" 
	d="
M48.000000,287.898041 
	C37.025139,287.898041 26.550280,287.898102 16.075418,287.898163 
	C15.244081,287.898163 14.412699,287.903534 13.581410,287.897064 
	C6.740600,287.843994 2.205610,284.768311 2.106174,280.117035 
	C2.006311,275.445770 6.582366,272.160797 13.348826,272.125732 
	C20.331881,272.089569 27.315266,272.117462 34.298508,272.117523 
	C46.436047,272.117584 58.577015,271.963593 70.708542,272.233826 
	C73.500122,272.296021 77.104439,273.041565 78.789970,274.885040 
	C80.398666,276.644470 80.782440,280.396484 80.285233,283.001617 
	C79.563385,286.783813 75.878082,287.767639 72.441475,287.837006 
	C64.463821,287.997986 56.480827,287.894440 48.000000,287.898041 
z"/>
<path fill="#6FCA07" opacity="1.000000" stroke="none" 
	d="
M123.200363,228.522568 
	C121.076096,224.526520 121.084915,220.685028 124.461197,218.332596 
	C126.574158,216.860382 130.429825,215.933334 132.515503,216.897964 
	C134.857925,217.981339 137.273376,221.389267 137.448578,223.937714 
	C137.605743,226.223892 135.275833,229.435303 133.132751,230.953201 
	C129.696136,233.387238 126.165382,231.899612 123.200363,228.522568 
z"/>
<path fill="#6FCA07" opacity="1.000000" stroke="none" 
	d="
M451.226166,199.730560 
	C448.256927,196.249084 447.667786,192.458801 450.432526,189.499146 
	C452.194794,187.612625 455.826538,185.907654 458.061676,186.444794 
	C460.557159,187.044525 463.543335,189.966553 464.223938,192.450958 
	C464.829498,194.661316 463.235260,198.291367 461.433716,200.157120 
	C458.564667,203.128357 454.791534,202.587067 451.226166,199.730560 
z"/>
<path fill="#5CA307" opacity="1.000000" stroke="none" 
	d="
M253.875870,122.561157 
	C258.740082,121.269455 262.106201,122.758949 264.054169,126.973534 
	C265.656891,130.441208 264.662079,133.547455 261.921295,135.964890 
	C258.955048,138.581223 255.576233,138.757553 252.276291,136.578796 
	C247.216049,133.237793 247.840836,126.711624 253.875870,122.561157 
z"/>
<path fill="#5CA307" opacity="1.000000" stroke="none" 
	d="
M164.452850,67.270721 
	C170.167511,65.224152 174.184067,66.586227 176.048523,70.882294 
	C177.725098,74.745499 176.168182,79.062256 172.377884,81.059631 
	C168.628494,83.035446 164.057419,81.865257 161.991013,78.130882 
	C159.754593,74.089272 160.563995,70.461006 164.452850,67.270721 
z"/>
<path fill="#5CA307" opacity="1.000000" stroke="none" 
	d="
M347.485168,399.819641 
	C341.403992,399.699615 338.312073,397.385437 337.917572,392.907257 
	C337.525726,388.458801 339.607880,385.414764 343.809326,384.285400 
	C347.827026,383.205444 351.026581,384.893188 352.921906,388.580414 
	C355.131439,392.878937 353.258606,396.854919 347.485168,399.819641 
z"/>
<path fill="#6FCA07" opacity="1.000000" stroke="none" 
	d="
M458.483795,511.816956 
	C452.409424,511.707733 449.325592,509.390717 448.908356,504.915924 
	C448.516113,500.709381 450.430267,497.837585 454.307831,496.394379 
	C457.953186,495.037598 462.198151,496.971252 463.932739,500.561096 
	C466.039551,504.921326 464.255737,508.855530 458.483795,511.816956 
z"/>
</svg>